<!-- Exported by Character Map UWP -->
<svg height="100%" viewBox="-77 155 1179 921" width="100%" xmlns="http://www.w3.org/2000/svg" xmlns:xlink="http://www.w3.org/1999/xlink">
  <path d="M24,1075.5L1000,1075.5C1062,1075.5 1101.5,1036 1101.5,975.5L1101.5,254C1101.5,194 1062,154.5 1000,154.5L24,154.5C-37.5,154.5 -77.5,194 -77.5,254L-77.5,975.5C-77.5,1036 -37.5,1075.5 24,1075.5ZM22.5,341.5C8,341.5 -2,331 -2,318L-2,261.5C-2,245.5 8.5,235 24.5,235L87,235C101.5,235 111,245 111,259.5L111,318C111,331 101.5,341.5 87,341.5ZM205.5,575C190.5,575 181.5,566.5 181.5,551.5L181.5,258C181.5,243 190.5,235 205.5,235L819,235C833.5,235 842.5,243 842.5,258L842.5,551.5C842.5,566.5 833.5,575 819,575ZM937,341.5C922.5,341.5 913,331 913,318L913,259.5C913,245 922.5,235 937,235L999.5,235C1016,235 1026,245.5 1026,261.5L1026,318C1026,331 1016.5,341.5 1001.5,341.5ZM22.5,507C8,507 -2,496 -2,483.5L-2,426C-2,411.5 7.5,401.5 22.5,401.5L87,401.5C101.5,401.5 111,411.5 111,426L111,483.5C111,496 101.5,507 87,507ZM937,507C922.5,507 913,496 913,483.5L913,426C913,411.5 922.5,401.5 937,401.5L1001.5,401.5C1016.5,401.5 1026,411.5 1026,426L1026,483.5C1026,496 1016.5,507 1001.5,507ZM22.5,667.5C8,667.5 -2,657 -2,644L-2,587C-2,572 7.5,562.5 22.5,562.5L87,562.5C101.5,562.5 111,572 111,587L111,644C111,657 101.5,667.5 87,667.5ZM937,667.5C922.5,667.5 913,657 913,644L913,587C913,572 922.5,562.5 937,562.5L1001.5,562.5C1016.5,562.5 1026,572 1026,587L1026,644C1026,657 1016.5,667.5 1001.5,667.5ZM205.5,995C190.5,995 181.5,986 181.5,971L181.5,679.5C181.5,665 190.5,656 205.5,656L819,656C833.5,656 842.5,665 842.5,679.5L842.5,971C842.5,986 833.5,995 819,995ZM22.5,829.5C8,829.5 -2,818.5 -2,805.5L-2,748.5C-2,733.5 7.5,724 22.5,724L87,724C101.5,724 111,733.5 111,748.5L111,805.5C111,818.5 101.5,829.5 87,829.5ZM937,829.5C922.5,829.5 913,818.5 913,805.5L913,748.5C913,733.5 922.5,724 937,724L1001.5,724C1016.5,724 1026,733.5 1026,748.5L1026,805.5C1026,818.5 1016.5,829.5 1001.5,829.5ZM24.5,995C8.5,995 -2,984 -2,969L-2,912.5C-2,898.5 8,888.5 22.5,888.5L87,888.5C101.5,888.5 111,898.5 111,912.5L111,970.5C111,984.5 101.5,995 87,995ZM937,995C922.5,995 913,984.5 913,970.5L913,912.5C913,898.5 922.5,888.5 937,888.5L1001.5,888.5C1016.5,888.5 1026,898.5 1026,912.5L1026,969C1026,984 1016,995 999.5,995Z" fill="#FFFFFF" fill-opacity="1">
  </path>
</svg>