<!-- Exported by Character Map UWP -->
<svg height="100%" viewBox="41 515 943 200" width="100%" xmlns="http://www.w3.org/2000/svg" xmlns:xlink="http://www.w3.org/1999/xlink">
  <path d="M242,614.5C242,559 197,514.5 140.5,514.5C85.5,514.5 40.5,559 40.5,614.5C40.5,670 85.5,714.5 140.5,714.5C197,714.5 242,670 242,614.5ZM612,614.5C612,559 567.5,514.5 512,514.5C457,514.5 412.5,559 412.5,614.5C412.5,670 457,714.5 512,714.5C567.5,714.5 612,670 612,614.5ZM983.5,614.5C983.5,559 939,514.5 883.5,514.5C827,514.5 782.5,559 782.5,614.5C782.5,670 827,714.5 883.5,714.5C939,714.5 983.5,670 983.5,614.5Z" fill="#FFFFFF" fill-opacity="1">
  </path>
</svg>