<!-- Exported by Character Map UWP -->
<svg height="100%" viewBox="42 139 942 951" width="100%" xmlns="http://www.w3.org/2000/svg" xmlns:xlink="http://www.w3.org/1999/xlink">
  <path d="M425.75,908C509.25,908 586.25,881 649.25,836L886.25,1073C897.25,1084 911.75,1089.5 927.25,1089.5C959.75,1089.5 982.75,1064.5 982.75,1032.5C982.75,1017.5 977.75,1003 966.75,992.5L731.25,756.5C780.75,691.5 810.25,611 810.25,523.5C810.25,312 637.25,139 425.75,139C214.75,139 41.25,311.5 41.25,523.5C41.25,735 214.25,908 425.75,908ZM425.75,825C260.75,825 124.25,688.5 124.25,523.5C124.25,358.5 260.75,222 425.75,222C590.75,222 727.25,358.5 727.25,523.5C727.25,688.5 590.75,825 425.75,825Z" fill="#FFFFFF" fill-opacity="1">
  </path>
</svg>