<!-- Exported by Character Map UWP -->
<svg height="100%" viewBox="-115 139 1254 951" width="100%" xmlns="http://www.w3.org/2000/svg" xmlns:xlink="http://www.w3.org/1999/xlink">
  <path d="M-115,179C-115,201 -97,219 -75,219L1099,219C1121,219 1139,201 1139,179C1139,157 1121,138.5 1099,138.5L-75,138.5C-97,138.5 -115,157 -115,179ZM257.5,564.5L390.5,660L339.5,811.5C328,844.5 358,861.5 383,843L512.5,748.5L641.5,843C666.5,861.5 696,844.5 685,811.5L634.5,660L766.5,564.5C793.5,545.5 781.5,514 751,514L587.5,514L539.5,363.5C530,334 495,334 486,363.5L437,514L273,514C242.5,514 230.5,545.5 257.5,564.5ZM-115,1049C-115,1071 -97,1089.5 -75,1089.5L1099,1089.5C1121,1089.5 1139,1071 1139,1049C1139,1027 1121,1009 1099,1009L-75,1009C-97,1009 -115,1027 -115,1049Z" fill="#FFFFFF" fill-opacity="1">
  </path>
</svg>