<!-- Exported by Character Map UWP -->
<svg height="100%" viewBox="-212 -17 1448 1008" width="100%" xmlns="http://www.w3.org/2000/svg" xmlns:xlink="http://www.w3.org/1999/xlink">
  <path d="M718.5,174C741.5,174 760,155 760,132.5L760,24.5C760,1.5 741.5,-17 718.5,-17C696,-17 677,1.5 677,24.5L677,132.5C677,155 696,174 718.5,174ZM428.5,270.5C445,287 472,286.5 487.5,270.5C503,254.5 503.5,228.5 487.5,212.5L410.5,135.5C394.5,119 368.5,119.5 352.5,135.5C336.5,151 336.5,177.5 352.5,194ZM949.5,270.5C965,286.5 992.5,287 1008.5,270.5L1085,194C1101,177.5 1101,151 1085,135.5C1069,119.5 1043,119 1027,135.5L949.5,212.5C933.5,228.5 934,254.5 949.5,270.5ZM847,715.5C921,666 966,589.5 966,501.5C966,364 856,253.5 718.5,253.5C628,253.5 549.5,302 508,374.5C529,396 547,419.5 562.5,448.5C727,462 833.5,564.5 847,715.5ZM-4.5,991L536.5,991C678,991 788,884 788,745.5C788,607.5 676,503.5 526.5,502.5C468,391 364,326 243,326C80.5,326 -57.5,452.5 -72.5,616.5C-157.5,642 -212,714 -212,802C-212,914 -127.5,991 -4.5,991ZM1086.5,543L1195,543C1217.5,543 1236,524.5 1236,501.5C1236,478.5 1217.5,460 1195,460L1086.5,460C1064.5,460 1045.5,478.5 1045.5,501.5C1045.5,524.5 1064.5,543 1086.5,543ZM1027,868.5C1043,884.5 1069,884 1085,868C1101,852 1101,825.5 1085,810L1007.5,733C992,717.5 965.5,717 949.5,733C933.5,749 933.5,776 949.5,792Z" fill="#FFFFFF" fill-opacity="1">
  </path>
</svg>