<svg xmlns="http://www.w3.org/2000/svg" width="100" height="100" viewBox="0 0 100 100"><g transform="translate(44 200)"><rect width="100" height="100" transform="translate(-44 -200)" fill="none" opacity="0"/><path d="M-201.625,33.4h27.05A12.255,12.255,0,0,0-162,21.125c0-6.9-5.6-12.1-13.075-12.15A15.752,15.752,0,0,0-189.25.15a15.966,15.966,0,0,0-15.775,14.525A9.5,9.5,0,0,0-212,23.95C-212,29.55-207.775,33.4-201.625,33.4Z" transform="translate(181.8 -163.2)" fill="#fff"/><path d="M-165.475-7.45A2.086,2.086,0,0,0-163.4-9.525v-5.4A2.07,2.07,0,0,0-165.475-17a2.086,2.086,0,0,0-2.075,2.075v5.4A2.1,2.1,0,0,0-165.475-7.45Zm-14.5,4.825a2.09,2.09,0,0,0,2.95,0,2.075,2.075,0,0,0,0-2.9l-3.85-3.85a2.03,2.03,0,0,0-2.9,0,2.082,2.082,0,0,0,0,2.925Zm26.05,0a2.09,2.09,0,0,0,2.95,0l3.825-3.825a2.082,2.082,0,0,0,0-2.925,2.03,2.03,0,0,0-2.9,0l-3.875,3.85A2.075,2.075,0,0,0-153.925-2.625Zm-5.125,22.25a12.765,12.765,0,0,0,5.95-10.7,12.345,12.345,0,0,0-12.375-12.4A12.072,12.072,0,0,0-176,2.575a15.934,15.934,0,0,1,2.725,3.7C-165.05,6.95-159.725,12.075-159.05,19.625ZM-147.075,11h5.425a2.065,2.065,0,0,0,2.05-2.075,2.065,2.065,0,0,0-2.05-2.075h-5.425a2.081,2.081,0,0,0-2.05,2.075A2.081,2.081,0,0,0-147.075,11Zm-2.975,16.275a2.052,2.052,0,0,0,2.9-.025,2.052,2.052,0,0,0,0-2.9l-3.875-3.85a2.075,2.075,0,0,0-2.9,0,2.113,2.113,0,0,0,0,2.95Z" transform="translate(181.8 -163.2)" fill="#ef0"/></g></svg>